<svg width="1538" height="1538" xmlns="http://www.w3.org/2000/svg">

 <g>
  <title>background</title>
  <rect fill="none" id="canvas_background" height="1538" width="1538" y="-1" x="-1"/>
 </g>
 <g>
  <title>Layer 1</title>
  <path id="svg_1" fill="#2e5386" d="m1165.245512,1011.39827l102,-102q19,-19 19,-45t-19,-45l-454,-454q-19,-19 -45,-19t-45,19l-454,454q-19,19 -19,45t19,45l102,102q19,19 45,19t45,-19l307,-307l307,307q19,19 45,19t45,-19zm371,-243q0,209 -103,385.5t-279.5,279.5t-385.5,103t-385.5,-103t-279.5,-279.5t-103,-385.5t103,-385.5t279.5,-279.5t385.5,-103t385.5,103t279.5,279.5t103,385.5z"/>
 </g>
</svg>